<?xml version="1.0" encoding="UTF-8" standalone="no"?>
<!-- Created with Inkscape (http://www.inkscape.org/) -->

<svg
   width="300mm"
   height="152mm"
   viewBox="0 74 300 152"
   version="1.1"
   id="svg1"
   xml:space="preserve"
   inkscape:version="1.4.3 (0d15f75, 2025-12-25)"
   sodipodi:docname="ossfe light transparent.svg"
   xmlns:inkscape="http://www.inkscape.org/namespaces/inkscape"
   xmlns:sodipodi="http://sodipodi.sourceforge.net/DTD/sodipodi-0.dtd"
   xmlns="http://www.w3.org/2000/svg"
   xmlns:svg="http://www.w3.org/2000/svg"><sodipodi:namedview
     id="namedview1"
     pagecolor="#505050"
     bordercolor="#eeeeee"
     borderopacity="1"
     inkscape:showpageshadow="0"
     inkscape:pageopacity="0"
     inkscape:pagecheckerboard="0"
     inkscape:deskcolor="#505050"
     inkscape:document-units="mm"
     inkscape:zoom="0.51929604"
     inkscape:cx="94.358509"
     inkscape:cy="567.1139"
     inkscape:window-width="1920"
     inkscape:window-height="1009"
     inkscape:window-x="1912"
     inkscape:window-y="-8"
     inkscape:window-maximized="1"
     inkscape:current-layer="layer1"
     showgrid="false"><inkscape:grid
       id="grid5"
       units="mm"
       originx="0"
       originy="0"
       spacingx="1"
       spacingy="0.99999998"
       empcolor="#0099e5"
       empopacity="0.30196078"
       color="#0099e5"
       opacity="0.14901961"
       empspacing="5"
       enabled="true"
       visible="false" /></sodipodi:namedview><defs
     id="defs1" /><rect
     style="display:none;fill:#333f50;fill-opacity:1;stroke-width:0.435381"
     id="rect1"
     width="300"
     height="300"
     x="-0.044649579"
     y="0.23276678"
     inkscape:label="rect1" /><g
     inkscape:label="OSSFE"
     inkscape:groupmode="layer"
     id="layer1"
     transform="matrix(3.0821624,0,0,3.0821624,-90.763023,-70.973111)"><path
       d="m 45.089336,63.927839 c -6.215146,0 -9.718786,4.11287 -9.718786,10.96781 0,6.82447 3.50364,10.63294 9.718786,10.63294 6.215145,0 9.657809,-3.59513 9.657809,-10.54147 0,-6.94634 -3.442664,-11.05928 -9.657809,-11.05928 z m 18.066598,0 c -4.935557,0 -7.403166,2.58963 -7.403166,6.21513 0,2.55918 1.218592,4.02167 3.381706,4.99659 1.431921,0.6398 3.046636,1.00551 5.544881,1.55391 2.528711,0.54839 3.137793,1.37083 3.137793,2.55902 0,1.79751 -1.431749,2.86391 -3.929993,2.86391 -2.71151,0 -4.447835,-1.2795 -4.508768,-3.35122 h -4.082955 c 0.0914,4.5395 3.564745,6.76341 8.561234,6.76341 4.722292,0 8.073409,-1.98045 8.073409,-6.42855 0,-2.86384 -1.401231,-4.11299 -3.168282,-4.90512 -1.492854,-0.67026 -3.716721,-1.21842 -6.001701,-1.76682 -2.254514,-0.54839 -3.138309,-1.27943 -3.138309,-2.55902 0,-1.52332 1.249239,-2.3766 3.625618,-2.3766 2.559178,0 3.808195,1.00563 4.02146,3.07734 h 4.02146 c -0.152332,-3.86923 -3.016032,-6.64198 -8.134387,-6.64198 z m 17.152441,0 c -4.935557,0 -7.403166,2.58963 -7.403166,6.21513 0,2.55918 1.218591,4.02167 3.381706,4.99659 1.431921,0.6398 3.046636,1.00551 5.544881,1.55391 2.528707,0.54839 3.138307,1.37083 3.138307,2.55902 0,1.79751 -1.43226,2.86391 -3.930506,2.86391 -2.711509,0 -4.447836,-1.2795 -4.508769,-3.35122 H 72.44839 c 0.0914,4.5395 3.564228,6.76341 8.560718,6.76341 4.722295,0 8.073925,-1.98045 8.073925,-6.42855 0,-2.86384 -1.40175,-4.11299 -3.1688,-4.90512 -1.49286,-0.67026 -3.716719,-1.21842 -6.001699,-1.76682 -2.254513,-0.54839 -3.13831,-1.27943 -3.13831,-2.55902 0,-1.52332 1.249239,-2.3766 3.625618,-2.3766 2.559181,0 3.808201,1.00563 4.021461,3.07734 h 4.02198 c -0.15233,-3.86923 -3.01656,-6.64198 -8.134908,-6.64198 z m 9.810258,0.67025 v 20.22977 h 4.23488 v -8.53074 h 8.896097 v -3.56465 h -8.896097 v -4.60023 h 10.175607 v -3.53415 z m 15.385617,0 v 20.22977 h 15.35514 v -3.59513 h -11.24221 v -5.2095 h 9.90172 v -3.56464 h -9.90172 v -4.32635 h 10.7549 v -3.53415 z m -60.414914,3.07733 c 3.534102,0 5.483903,2.52847 5.483903,7.3117 0,4.78322 -2.437263,6.91585 -5.483903,6.91585 -3.503636,0 -5.544881,-2.13263 -5.544881,-6.91585 0,-4.78323 1.980312,-7.3117 5.544881,-7.3117 z"
       style="font-size:30.4664px;font-family:Coolvetica;-inkscape-font-specification:Coolvetica;fill:#ffffff;stroke-width:0.152331"
       id="path1"
       inkscape:label="OSSFE" /><g
       id="g3"
       style="display:inline"
       transform="translate(-17.175597,-128.81698)"
       inkscape:label="top-line"><path
         style="fill:none;fill-opacity:1;stroke:#ffffff;stroke-width:1.16487;stroke-dasharray:none;stroke-opacity:1"
         d="m 66.752899,194.32383 5.240722,-6.44391 63.670629,-0.2771"
         id="path2"
         inkscape:label="top line"
         sodipodi:nodetypes="ccc" /><path
         style="display:inline;opacity:1;fill:none;fill-opacity:1;stroke:#ffffff;stroke-width:1.16487;stroke-dasharray:none;stroke-opacity:1"
         d="m 116.02941,187.66252 6.29166,-7.90244"
         id="path3"
         inkscape:label="side top"
         sodipodi:nodetypes="cc" /><g
         id="g4"><ellipse
           style="opacity:1;fill:#ffffff;fill-opacity:1;stroke:none;stroke-width:1.63495;stroke-dasharray:none;stroke-opacity:1"
           id="path4"
           cx="72.036659"
           cy="187.7869"
           rx="2.4234507"
           ry="2.5047746" /><ellipse
           style="fill:#ffffff;fill-opacity:1;stroke:none;stroke-width:1.63495;stroke-dasharray:none;stroke-opacity:1"
           id="path4-8"
           cx="85.570763"
           cy="187.7869"
           rx="2.4234507"
           ry="2.5047746" /><ellipse
           style="fill:#ffffff;fill-opacity:1;stroke:none;stroke-width:1.63495;stroke-dasharray:none;stroke-opacity:1"
           id="path4-8-8"
           cx="97.486961"
           cy="187.7869"
           rx="2.4234507"
           ry="2.5047746" /><ellipse
           style="fill:#ffffff;fill-opacity:1;stroke:none;stroke-width:1.63495;stroke-dasharray:none;stroke-opacity:1"
           id="path4-8-8-5"
           cx="115.82229"
           cy="187.7869"
           rx="2.4234507"
           ry="2.5047746" /><ellipse
           style="fill:#ffffff;fill-opacity:1;stroke:none;stroke-width:1.63495;stroke-dasharray:none;stroke-opacity:1"
           id="path4-8-8-5-3-3"
           cx="135.42682"
           cy="187.7869"
           rx="2.4234507"
           ry="2.5047746" /><ellipse
           style="fill:#ffffff;fill-opacity:1;stroke:none;stroke-width:1.63495;stroke-dasharray:none;stroke-opacity:1"
           id="path4-8-8-5-3-3-7"
           cx="122.56351"
           cy="179.54944"
           rx="2.4234507"
           ry="2.5047746" /></g></g><g
       id="g5"
       transform="translate(-17.175597,-128.81698)"
       inkscape:label="bottom-lime"
       style="display:inline"><ellipse
         style="display:inline;fill:#ffffff;fill-opacity:1;stroke:none;stroke-width:1.63495;stroke-dasharray:none;stroke-opacity:1"
         id="path4-8-8-5-9"
         cx="125.5313"
         cy="219.22057"
         rx="2.4234507"
         ry="2.5047746"
         inkscape:label="bot-3" /><ellipse
         style="display:inline;fill:#ffffff;fill-opacity:1;stroke:none;stroke-width:1.63495;stroke-dasharray:none;stroke-opacity:1"
         id="path4-8-8-5-2"
         cx="114.57494"
         cy="219.22057"
         rx="2.4234507"
         ry="2.5047746"
         inkscape:label="bot-2" /><ellipse
         style="display:inline;fill:#ffffff;fill-opacity:1;stroke:none;stroke-width:1.63495;stroke-dasharray:none;stroke-opacity:1"
         id="path4-8-8-5-2-4"
         cx="105.01513"
         cy="219.22057"
         rx="2.4234507"
         ry="2.5047746"
         inkscape:label="bot-1" /><path
         style="display:inline;opacity:1;fill:none;fill-opacity:1;stroke:#ffffff;stroke-width:1.16487;stroke-dasharray:none;stroke-opacity:1"
         d="m 99.875139,213.21026 4.921331,5.95145 h 20.97769"
         id="path5"
         sodipodi:nodetypes="ccc" /></g></g></svg>
